<svg width="390" height="844" viewBox="0 0 390 844" fill="none" xmlns="http://www.w3.org/2000/svg">
  <rect width="390" height="844" fill="#F5F5F5"/>
  <rect width="390" height="96" fill="#47957F"/>
  <text x="24" y="28" fill="white" font-size="14" font-family="Arial">9:41</text>
  <text x="195" y="62" text-anchor="middle" fill="white" font-size="18" font-weight="700" font-family="Arial">徐州和著湖山</text>

  <rect x="16" y="108" width="50" height="28" rx="14" fill="white"/><text x="41" y="126" text-anchor="middle" fill="#1A1A1A" font-size="12" font-family="Arial">当月</text>
  <rect x="74" y="108" width="50" height="28" rx="14" fill="white"/><text x="99" y="126" text-anchor="middle" fill="#1A1A1A" font-size="12" font-family="Arial">全盘</text>
  <rect x="132" y="108" width="84" height="28" rx="14" fill="white"/><text x="174" y="126" text-anchor="middle" fill="#1A1A1A" font-size="12" font-family="Arial">住宅-全部</text>
  <rect x="224" y="108" width="50" height="28" rx="14" fill="white"/><text x="249" y="126" text-anchor="middle" fill="#1A1A1A" font-size="12" font-family="Arial">合同</text>
  <rect x="324" y="108" width="42" height="28" rx="14" fill="white" stroke="#D7E6DF"/><text x="345" y="126" text-anchor="middle" fill="#007440" font-size="12" font-family="Arial">重置</text>

  <rect x="16" y="150" width="358" height="110" rx="16" fill="#E8F5F0"/>
  <rect x="24" y="158" width="98" height="66" rx="12" fill="white" stroke="#007440"/>
  <text x="32" y="176" fill="#4A5565" font-size="12" font-family="Arial">全部已售</text>
  <text x="32" y="206" fill="#0A0A0A" font-size="24" font-weight="700" font-family="Arial">43</text>
  <text x="62" y="206" fill="#0A0A0A" font-size="12" font-family="Arial">套</text>
  <text x="84" y="206" fill="#6A7282" font-size="10" font-family="Arial">（剩10套）</text>
  <text x="32" y="222" fill="#6A7282" font-size="11" font-family="Arial">2,629万</text>

  <rect x="130" y="158" width="98" height="66" rx="12" fill="white"/>
  <text x="138" y="176" fill="#4A5565" font-size="12" font-family="Arial">中高层128A-3</text>
  <text x="138" y="206" fill="#0A0A0A" font-size="24" font-weight="700" font-family="Arial">2</text>
  <text x="156" y="206" fill="#0A0A0A" font-size="12" font-family="Arial">套</text>
  <text x="175" y="206" fill="#6A7282" font-size="10" font-family="Arial">（剩1套）</text>
  <text x="138" y="222" fill="#6A7282" font-size="11" font-family="Arial">147万</text>

  <rect x="236" y="158" width="98" height="66" rx="12" fill="white"/>
  <text x="244" y="176" fill="#4A5565" font-size="12" font-family="Arial">中高层106b-4</text>
  <text x="244" y="206" fill="#0A0A0A" font-size="24" font-weight="700" font-family="Arial">2</text>
  <text x="262" y="206" fill="#0A0A0A" font-size="12" font-family="Arial">套</text>
  <text x="281" y="206" fill="#6A7282" font-size="10" font-family="Arial">（剩0套）</text>
  <text x="244" y="222" fill="#6A7282" font-size="11" font-family="Arial">139万</text>

  <rect x="16" y="276" width="358" height="254" rx="12" fill="white"/>
  <text x="28" y="302" fill="#1A1A1A" font-size="16" font-weight="700" font-family="Arial">近6周流速趋势</text>
  <rect x="28" y="316" width="48" height="28" rx="8" fill="#007440"/><text x="52" y="334" text-anchor="middle" fill="white" font-size="12" font-family="Arial">套数</text>
  <rect x="82" y="316" width="48" height="28" rx="8" fill="#F3F4F6"/><text x="106" y="334" text-anchor="middle" fill="#8C8C8C" font-size="12" font-family="Arial">金额</text>
  <circle cx="32" cy="364" r="4" fill="#007440"/><text x="42" y="368" fill="#8C8C8C" font-size="12" font-family="Arial">实际</text>
  <text x="314" y="334" fill="#8C8C8C" font-size="11" font-family="Arial">单位：套</text>
  <rect x="64" y="424" width="18" height="48" rx="6" fill="#4E9A79"/>
  <rect x="120" y="412" width="18" height="60" rx="6" fill="#4E9A79"/>
  <rect x="176" y="402" width="18" height="70" rx="6" fill="#4E9A79"/>
  <rect x="232" y="394" width="18" height="78" rx="6" fill="#4E9A79"/>
  <rect x="288" y="388" width="18" height="84" rx="6" fill="#4E9A79"/>
  <line x1="28" y1="488" x2="346" y2="488" stroke="#E5E7EB"/>
  <text x="70" y="510" text-anchor="middle" fill="#8C8C8C" font-size="11" font-family="Arial">2/03-2/09</text>
  <text x="126" y="510" text-anchor="middle" fill="#8C8C8C" font-size="11" font-family="Arial">2/10-2/16</text>
  <text x="182" y="510" text-anchor="middle" fill="#8C8C8C" font-size="11" font-family="Arial">2/17-2/23</text>
  <text x="238" y="510" text-anchor="middle" fill="#8C8C8C" font-size="11" font-family="Arial">2/24-3/02</text>
  <text x="294" y="510" text-anchor="middle" fill="#8C8C8C" font-size="11" font-family="Arial">3/03-3/09</text>

  <rect x="16" y="546" width="358" height="250" rx="12" fill="white"/>
  <text x="28" y="572" fill="#1A1A1A" font-size="16" font-weight="700" font-family="Arial">全盘明细</text>
  <line x1="28" y1="588" x2="346" y2="588" stroke="#E5E7EB"/>
  <text x="28" y="610" fill="#007440" font-size="13" font-weight="700" font-family="Arial">指标</text>
  <text x="28" y="624" fill="#8C8C8C" font-size="10" font-family="Arial">单位：套/万</text>
  <text x="198" y="610" fill="#8C8C8C" font-size="12" font-family="Arial">3/10-3/16</text>
  <text x="278" y="610" fill="#8C8C8C" font-size="12" font-family="Arial">3/03-3/09</text>
  <line x1="28" y1="640" x2="346" y2="640" stroke="#F0F0F0"/>
  <text x="28" y="664" fill="#007440" font-size="13" font-family="Arial">合同套数</text><text x="210" y="664" fill="#0A0A0A" font-size="13" font-family="Arial">180</text><text x="290" y="664" fill="#0A0A0A" font-size="13" font-family="Arial">160</text>
  <line x1="28" y1="680" x2="346" y2="680" stroke="#F0F0F0"/>
  <text x="28" y="704" fill="#007440" font-size="13" font-family="Arial">合同金额</text><text x="198" y="704" fill="#0A0A0A" font-size="13" font-family="Arial">57,780</text><text x="278" y="704" fill="#0A0A0A" font-size="13" font-family="Arial">50,400</text>
  <line x1="28" y1="720" x2="346" y2="720" stroke="#F0F0F0"/>
  <text x="28" y="744" fill="#007440" font-size="13" font-family="Arial">回款合计</text><text x="198" y="744" fill="#0A0A0A" font-size="13" font-family="Arial">53,158</text><text x="278" y="744" fill="#0A0A0A" font-size="13" font-family="Arial">46,368</text>
</svg>
